<svg width="38" height="38" viewBox="0 0 38 38" fill="none" xmlns="http://www.w3.org/2000/svg">
<g filter="url(#filter0_d_6_40)">
<path fill-rule="evenodd" clip-rule="evenodd" d="M19.0124 0C10.7109 0 4 6.87497 4 15.3802C4 22.179 8.29993 27.9339 14.2651 29.9708C15.0109 30.1239 15.284 29.6399 15.284 29.2327C15.284 28.8761 15.2595 27.6539 15.2595 26.3805C11.0834 27.2974 10.2137 24.5471 10.2137 24.5471C9.54261 22.7646 8.54822 22.3065 8.54822 22.3065C7.18139 21.3643 8.64778 21.3643 8.64778 21.3643C10.164 21.4662 10.9595 22.943 10.9595 22.943C12.3015 25.2855 14.4639 24.6236 15.3338 24.2161C15.458 23.223 15.8559 22.5355 16.2784 22.1537C12.9477 21.7971 9.44336 20.473 9.44336 14.5653C9.44336 12.8846 10.0395 11.5096 10.9841 10.4403C10.8351 10.0584 10.313 8.47934 11.1335 6.36591C11.1335 6.36591 12.401 5.95841 15.2592 7.94466C16.4828 7.60799 17.7448 7.43672 19.0124 7.43528C20.28 7.43528 21.5721 7.61372 22.7654 7.94466C25.6238 5.95841 26.8914 6.36591 26.8914 6.36591C27.7118 8.47934 27.1894 10.0584 27.0404 10.4403C28.0099 11.5096 28.5815 12.8846 28.5815 14.5653C28.5815 20.473 25.0771 21.7715 21.7215 22.1537C22.2685 22.6374 22.7405 23.554 22.7405 25.0055C22.7405 27.068 22.7159 28.7233 22.7159 29.2324C22.7159 29.6399 22.9894 30.1239 23.7349 29.9711C29.7 27.9336 33.9999 22.179 33.9999 15.3802C34.0245 6.87497 27.289 0 19.0124 0Z" fill="white"/>
<path d="M14.7611 26.9814C12.8937 27.2626 11.6558 26.8162 10.8643 26.2029C10.4366 25.8714 10.1586 25.5059 9.98665 25.2206C9.90057 25.0778 9.84041 24.9541 9.80077 24.8629C9.78092 24.8173 9.76613 24.7797 9.75574 24.7516C9.75054 24.7376 9.74643 24.726 9.74334 24.717L9.7426 24.7148C9.43215 23.8937 9.05536 23.3956 8.7732 23.1093C8.63095 22.965 8.51081 22.8725 8.43217 22.8189C8.39281 22.792 8.36374 22.7748 8.3474 22.7656C8.34071 22.7618 8.33615 22.7594 8.33389 22.7582L8.2999 22.7426L8.26445 22.7181C7.91687 22.4786 7.64018 22.2314 7.52503 21.9527C7.45771 21.7897 7.43734 21.5943 7.51757 21.4019C7.59209 21.2232 7.72551 21.1151 7.82767 21.0536C8.02008 20.9379 8.24937 20.8992 8.37713 20.883C8.45086 20.8736 8.516 20.869 8.56289 20.8667C8.58656 20.8656 8.60617 20.865 8.6206 20.8646L8.63836 20.8643L8.64416 20.8643L8.64625 20.8643L8.64708 20.8643H8.64745C8.64762 20.8643 8.64778 20.8643 8.64778 21.3643V20.8643H8.66456L8.6813 20.8654C9.60131 20.9272 10.2855 21.4054 10.7228 21.8354C10.9433 22.0522 11.1093 22.2646 11.2208 22.4235C11.2768 22.5033 11.3197 22.5705 11.3494 22.6193C11.3643 22.6437 11.3759 22.6636 11.3843 22.6783L11.3945 22.6963L11.3955 22.6982C11.9855 23.7257 12.7163 24.0519 13.3702 24.113C13.9361 24.1659 14.4837 24.0224 14.8818 23.8663C14.9765 23.3478 15.1425 22.902 15.3516 22.5338C13.917 22.2989 12.455 21.828 11.2854 20.8199C9.85536 19.5872 8.94336 17.624 8.94336 14.5653C8.94336 12.8717 9.50875 11.4564 10.419 10.3341C10.2072 9.64066 9.919 8.11264 10.6674 6.18496L10.7536 5.96283L10.9804 5.8899L11.1335 6.36591C10.9804 5.8899 10.9809 5.88975 10.9814 5.88959L10.9824 5.88927L10.9845 5.8886L10.9891 5.88719L10.9998 5.88405C11.0075 5.88184 11.0166 5.87939 11.0269 5.8768C11.0476 5.87161 11.0736 5.86585 11.1047 5.86023C11.1671 5.84898 11.2501 5.83832 11.3543 5.83375C11.563 5.8246 11.8538 5.83999 12.2306 5.92183C12.9503 6.07812 13.9794 6.47565 15.3523 7.40238C16.5481 7.09367 17.7773 6.93669 19.0118 6.93528L19.0124 6.93528C20.2456 6.93528 21.5001 7.09814 22.6727 7.40213C24.0455 6.47557 25.0745 6.0781 25.7942 5.92183C26.171 5.83999 26.4618 5.8246 26.6705 5.83375C26.7747 5.83832 26.8578 5.84898 26.9201 5.86023C26.9513 5.86585 26.9772 5.87161 26.9979 5.8768C27.0082 5.87939 27.0173 5.88184 27.025 5.88405L27.0357 5.88719L27.0403 5.8886L27.0424 5.88927L27.0434 5.88959C27.0439 5.88975 27.0444 5.8899 26.8914 6.36591L14.7611 26.9814ZM14.7611 26.9814C14.7634 27.4055 14.7676 27.8081 14.7718 28.1565C14.7737 28.3165 14.7756 28.4643 14.7774 28.5972C14.7812 28.8913 14.784 29.1127 14.784 29.2327C14.784 29.3378 14.7472 29.4141 14.7107 29.4486C14.6943 29.4641 14.6231 29.5275 14.3942 29.4865C8.64797 27.5089 4.5 21.9524 4.5 15.3802C4.5 7.13964 10.9984 0.5 19.0124 0.5C27.0023 0.5 33.5237 7.14012 33.4999 15.3788V15.3802C33.4999 21.9523 29.352 27.5085 23.6058 29.4868C23.3772 29.5276 23.3059 29.4643 23.2894 29.4487C23.2528 29.414 23.2159 29.3376 23.2159 29.2324C23.2159 29.0658 23.2186 28.7747 23.2222 28.3828C23.224 28.1824 23.2261 27.9556 23.2282 27.7057C23.2343 26.9697 23.2405 26.0387 23.2405 25.0055C23.2405 23.9616 23.0121 23.1381 22.6575 22.5278L14.7611 26.9814Z" stroke="black"/>
</g>
<defs>
<filter id="filter0_d_6_40" x="0" y="0" width="38" height="38" filterUnits="userSpaceOnUse" color-interpolation-filters="sRGB">
<feFlood flood-opacity="0" result="BackgroundImageFix"/>
<feColorMatrix in="SourceAlpha" type="matrix" values="0 0 0 0 0 0 0 0 0 0 0 0 0 0 0 0 0 0 127 0" result="hardAlpha"/>
<feOffset dy="4"/>
<feGaussianBlur stdDeviation="2"/>
<feComposite in2="hardAlpha" operator="out"/>
<feColorMatrix type="matrix" values="0 0 0 0 0 0 0 0 0 0 0 0 0 0 0 0 0 0 0.25 0"/>
<feBlend mode="normal" in2="BackgroundImageFix" result="effect1_dropShadow_6_40"/>
<feBlend mode="normal" in="SourceGraphic" in2="effect1_dropShadow_6_40" result="shape"/>
</filter>
</defs>
</svg>
